<svg id="Layer_2" data-name="Layer 2" xmlns="http://www.w3.org/2000/svg" viewBox="0 0 870 159.2"><defs><style>.cls-1{fill:#1b1b1b;}</style></defs><title>Artboard 1</title><path class="cls-1" d="M419.6,52.7l-6.7,6.7c-9.2-10-21.2-16.4-35.3-16.4-15,0-25.7,8.4-25.7,21.9,0,12,7.9,17.1,26.4,22.4l13.4,3.8C412.1,97,422,107,422,122.7c0,20.4-17.4,32.4-37.8,32.4-19.6,0-33.4-8.4-47.1-22.7l7-6.9c10.4,11.4,21.9,21.4,40.1,21.4,17.4,0,28.1-10.4,28.1-24.1,0-11.4-6.5-18.4-24.1-23.4l-14.2-4c-23.1-6.4-31.8-15.5-31.8-30.3,0-19.7,16.9-30.4,35.4-30.4s30.3,6.9,42,18"/><path class="cls-1" d="M535.1,73.6c0,23.1-16.7,37.1-35.3,37.1h-38v42.8h-10V36.5h48c18.5-.1,35.3,14,35.3,37.1m-10,0c0-19.4-12.2-29.3-27.6-29.3H461.9v58.5h35.6c15.4,0,27.6-9.9,27.6-29.2"/><path class="cls-1" d="M558.4,106.2V83.8c0-26.1,15.9-49,47.5-49,31.8,0,47.6,22.9,47.6,49v22.4c0,26.1-15.9,49-47.6,49s-47.5-23-47.5-49m85.1.6V83.1c0-23.4-13.9-40.1-37.6-40.1s-37.5,16.7-37.5,40.1v23.7c0,23.4,13.7,40.1,37.5,40.1s37.6-16.7,37.6-40.1"/><path class="cls-1" d="M740.6,108.3l26.6,45.1H755.8l-25.7-44.1H694.3v44.1h-10V36.4h47.8c19.2,0,35.4,15.5,35.4,36.4,0,17.8-11.5,31.7-26.9,35.5m-46.3-6.8h35.3c15.4,0,27.9-10.9,27.9-28.6S745,44.3,729.6,44.3H694.3Z"/><polygon class="cls-1" points="869.7 44.3 831.7 44.3 831.7 153.5 821.7 153.5 821.7 44.3 783.4 44.3 783.4 36.4 869.7 36.4 869.7 44.3"/><polygon class="cls-1" points="177.2 34.7 146 118.5 114.7 34.7 87.4 34.7 132.3 155.1 159.6 155.1 204.5 34.7 177.2 34.7"/><path class="cls-1" d="M21,119.5,1.1,134c7.7,11.5,23.3,23.6,44.2,23.6,23.5,0,41.8-14.4,41.8-36.8,0-14.6-8.5-25.8-26-33.8-2.4-1.1-12.4-5.5-14.3-6.3C37.5,76.7,33,72.3,33,67.1c0-5.4,4.2-10.7,12.9-10.7,6.1,0,11.6,2.9,17,8.7l19-13.8C74.3,39.7,60.3,32.5,45.2,32.5,25.2,32.5,7.7,45.4,7.7,67c0,15,8.5,26.7,26,34.1,5.1,2.2,8.7,3.7,12.7,5.4,5.8,2.5,15.1,6.3,15.1,14.6s-8.2,12.5-17,12.5c-7.9,0-16.3-5-23.5-14.1"/><path class="cls-1" d="M255.4,133.1a15.1,15.1,0,0,1-13.3-8.5c-2-3.8-2-9.8-2-14.9v-50h27.8l9.3-24.9H240V.4H214.5V113.6a49.6,49.6,0,0,0,2.3,16.3,40.67,40.67,0,0,0,38.6,27.6A42.72,42.72,0,0,0,284,146.3L268,128a19.67,19.67,0,0,1-12.6,5.1"/></svg>
